<svg width="160" height="10" xmlns="http://www.w3.org/2000/svg">
    <path d="M147.185 1.2c-3.496-.264-6.996-.453-10.494-.681-1.154-.074-2.312-.08-3.467-.118l-7.516-.248c-1.395-.047-2.791-.104-4.186-.14-.404-.01-.808-.013-1.213-.013-.909 0-1.818.018-2.726.02l-12.4.018c-.983.001-1.967.032-2.95.05-2.436.04-4.872.08-7.308.123-2.748.046-5.496.065-8.244.154l-13.34.428c-2.573.081-5.15.129-7.723.262l-13.302.681c-2.423.124-4.847.227-7.268.402l-13.755.993c-2.45.178-4.903.309-7.348.579L10.251 5.222l-2.96.326c-1.97.217-3.935.555-5.9.842-.124.023-.247.044-.37.065-.235.086-.44.24-.614.464C.147 7.255 0 7.716 0 8.193c0 .475.148.938.407 1.273.236.307.638.578.984.528 2.371-.346 4.74-.713 7.117-.974l6.61-.727 7.213-.791c.968-.107 1.939-.248 2.909-.318 3.749-.27 7.497-.535 11.247-.801l7.01-.501c.966-.07 1.932-.155 2.897-.205 3.715-.194 7.431-.37 11.145-.554l6.756-.334c.757-.038 1.513-.085 2.27-.11 4.013-.12 8.024-.237 12.035-.355l6.72-.199c.798-.024 1.595-.059 2.393-.069l12.41-.165a460.66 460.66 0 0 1 7.742-.058l13.18.04c.866.003 1.733.05 2.599.082l7.274.277 5.457.207c1.29.05 2.58.174 3.869.265 3.796.265 7.59.54 11.385.846.964.078 1.927.173 2.89.264 1.032.097 2.068.191 3.097.342.16.035.319.073.48.118.405.111.795.08 1.16-.197.336-.254.587-.678.691-1.165.218-1.026-.26-2.115-1.051-2.399-.691-.248-1.41-.347-2.122-.44l-1.464-.191c-.938-.122-1.884-.184-2.824-.276-1.765-.172-3.534-.272-5.301-.406" fill="#0057FC" fill-rule="evenodd"/>
</svg>
