<svg width="864" height="980" xmlns="http://www.w3.org/2000/svg" xmlns:xlink="http://www.w3.org/1999/xlink">
    <defs>
        <path id="a" d="M0 0h666v819H0z"/>
        <path d="M459 819c98.128 0 158.773-20.787 235.41-70.46C829.127 661.225 863 501.493 863 329c0-270.62-219.38-490-490-490-144.475 0-197.294 32.526-252.435 131.995C72.421 57.844-.15 260.89-.15 387.034-.15 657.654 188.38 819 459 819z" id="b"/>
    </defs>
    <g transform="translate(1 161)" fill="none" fill-rule="evenodd">
        <mask id="c" fill="#fff">
            <use xlink:href="#b"/>
        </mask>
        <use fill="#FFDD0F" xlink:href="#b"/>
        <path d="M438.086 993.024c186.948 0 274.914-6.102 274.914-73.37 0-3.107-20.998-87.515-21.656-90.435-13.576-60.32-166.326-104.195-344.642-104.195C159.754 725.024 36 852.384 36 919.654c0 67.268 215.138 73.37 402.086 73.37z" fill="#0057FC" mask="url(#c)"/>
    </g>
</svg>
