<svg width="273" height="111" xmlns="http://www.w3.org/2000/svg">
    <path d="M105.616 8.576C71.1 9.212 38.194 23.762 17.362 40.433.402 54.045-8.609 74.142 11.546 89.348c17.382 13.112 47.571 17.533 72.113 19.92 24.66 2.2 49.518 2.304 73.952.313 41.363-2.996 117.85-12.545 115.328-48.593-1.454-20.646-27.676-41.276-54.257-51.364C186.651-2.56 148.718-1.437 114.773 3.496 80.302 8.494 47.52 18.654 25.994 37.13 8.584 52.072-5.109 76.614 16.784 93.58c19.31 14.987 55.83 16.32 82.46 14.86 32.248-1.77 64.44-4.696 95.112-11.082 28.136-5.875 57.938-15.472 71.812-33.302 9.876-12.686 8.772-26.739-9.008-36.68-18.238-10.18-44.836-13.475-67.43-15.608-24.591-2.305-49.403-2.499-73.801-.576l-17.65 1.326c-2.632.182-1.624 2.824.952 2.64 16.4-1.17 32.631-2.851 49.246-2.731 11.662.117 23.332.621 34.965 1.511 24.126 1.864 51.827 5.176 71.542 15.677 23.673 12.617 11.938 33.107-5.285 44.67-23.497 15.807-60.134 22.234-92.582 26.463-30.805 3.946-65.164 7.725-96.83 4.153-15.353-1.7-31.118-5.798-41.532-13.859C6.743 81.715 8.53 69.025 13.55 58.578c12.254-25.619 46.966-41.56 84.663-49.362 36.246-7.49 78.438-10.52 114.545 1.317 17.767 6.1 32.671 15.36 42.916 26.664 8.39 8.83 14.649 18.946 12.974 29.281-2.876 17.648-31.345 27.058-53.984 32.31-26.407 6.118-55.297 8.679-83.494 9.397-26.51.908-53.252-1.224-79.024-6.301-14.245-2.963-28.526-7.477-38.55-15.05-11.223-8.479-11.57-19.847-6.33-29.653 6.967-13.076 23.53-23.517 40.137-31.415 16.607-7.899 37.003-14.176 58.033-14.568 2.625-.056 2.89-2.728.126-2.679l.053.057z" fill="#0057FC" fill-rule="nonzero"/>
</svg>
