<svg xmlns="http://www.w3.org/2000/svg" id="Layer_1" data-name="Layer 1" version="1.1" viewBox="0 0 900 900">
  <defs fill="#0c0000fff">
    <style>
      .cls-1 {
        fill: #0c0000;
        stroke-width: 0px;
      }
    </style>
  </defs>
  <path class="cls-1" d="M772.54,444.81c-11.11-11.12-25.02-17.61-39.48-19.86,2.65-21.18-3.84-43.29-20.06-59.51-10.76-10.75-24.11-17.23-38.05-19.7.52-3.5,1.03-7.03,1.03-10.65,0-19.11-7.44-37.08-20.96-50.59-6.69-6.67-14.4-11.64-22.61-15.13l76.12-76.12c27.9-27.88,27.9-73.26,0-101.14-27.86-27.9-73.28-27.88-101.14-.02l-264.71,264.71c-10.77-20.96-27.32-49.81-48.52-76.14-14.27-17.71-32.8-34.73-55.07-50.61-32.38-23.05-75.69-23.07-107.79-.1-25.79,18.49-32.5,53.85-15.26,80.5l39.48,61.12c20.76,32.14,31.27,69.34,30.35,107.57l-2.79,115.97c-.28,11.32-4.84,21.97-12.84,29.99l-52.94,52.94c-8.76,8.74-8.76,22.95,0,31.68,4.36,4.38,10.11,6.57,15.84,6.57s11.48-2.19,15.84-6.57l52.94-52.94c16.2-16.18,25.41-37.69,25.97-60.58l2.79-115.99c1.13-47.27-11.84-93.26-37.51-132.96l-39.48-61.14c-4.22-6.53-2.59-15.18,3.72-19.72,16.54-11.82,38.93-11.72,55.66.18,18.93,13.49,34.47,27.7,46.17,42.21,34.17,42.47,55.8,94.43,56,94.95,2.87,6.93,9,11.98,16.34,13.43,7.4,1.45,14.95-.84,20.26-6.13L639.08,123.79c10.43-10.39,27.34-10.39,37.77,0,10.41,10.41,10.41,27.34,0,37.75l-219.65,219.63c-17.45,17.47-23.96,41.79-19.54,64.4,20.24,95.79-52.26,139.85-55.57,141.78-10.69,6.17-14.37,19.82-8.24,30.55,4.16,7.22,11.7,11.28,19.48,11.28,3.78,0,7.6-.96,11.13-2.97,28.14-16.12,72.16-60,80.1-127.11,7.53,2.59,15.34,4.14,23.23,4.14,3.56,0,7.1-.5,10.64-1.01,2.47,13.93,8.98,27.31,19.73,38.05,13.93,13.95,32.26,20.94,50.57,20.94,2.99,0,5.95-.48,8.93-.86,2.25,14.45,8.73,28.36,19.83,39.48l.02.02c7.72,7.72,16.84,13.08,26.49,16.52-37.09,52.34-82.16,100.4-116.23,133.76-29.67,29.04-71.67,40.78-112.25,31.4l-23.9-5.51c-7.54-1.75-15.42.56-20.88,6.01l-74.69,74.69c-8.76,8.74-8.76,22.95,0,31.68,4.36,4.38,10.11,6.57,15.84,6.57s11.48-2.19,15.84-6.57l65.91-65.89,11.8,2.73c55.55,12.76,113-3.3,153.68-43.07,41.7-40.84,99.42-102.97,141.28-169.5,6.54-3.32,12.79-7.38,18.25-12.84l53.87-53.89c13.51-13.51,20.96-31.46,20.96-50.59s-7.44-37.08-20.96-50.57ZM526.68,450.64c-10.39,10.39-27.32,10.43-37.75,0-10.41-10.41-10.41-27.36-.02-37.77l96.66-96.64c10.43-10.43,27.34-10.41,37.77-.02,5.04,5.06,7.82,11.76,7.82,18.89s-2.79,13.83-7.82,18.89l-96.66,96.66ZM607.62,508.61c-10.43,10.39-27.34,10.39-37.77,0-10.41-10.41-10.41-27.34,0-37.77l73.7-73.68c5.21-5.21,12.06-7.8,18.89-7.8s13.67,2.59,18.87,7.78c10.41,10.41,10.41,27.36.02,37.77l-73.7,73.7ZM740.84,514.26l-53.87,53.89c-10.41,10.39-27.32,10.43-37.77.02-10.39-10.43-10.39-27.36,0-37.77l53.96-53.95c10.44-10.37,27.3-10.33,37.7.04,5.04,5.05,7.82,11.76,7.82,18.89s-2.79,13.83-7.84,18.89Z" fill="#0c0000fff"/>
  <path class="cls-1" d="M328.14,111.47c12.38,0,22.41-10.03,22.41-22.41V27.41c0-12.38-10.03-22.41-22.41-22.41s-22.41,10.03-22.41,22.41v61.66c0,12.38,10.03,22.41,22.41,22.41Z" fill="#0c0000fff"/>
  <path class="cls-1" d="M214.6,145.37c4.36,4.38,10.11,6.57,15.84,6.57s11.48-2.19,15.84-6.57c8.76-8.74,8.76-22.95,0-31.68l-43.58-43.58c-8.72-8.76-22.97-8.76-31.68,0-8.76,8.74-8.76,22.95,0,31.68l43.58,43.58Z" fill="#0c0000fff"/>
  <path class="cls-1" d="M425.84,151.93c5.73,0,11.48-2.19,15.84-6.57l43.58-43.58c8.76-8.74,8.76-22.95,0-31.68-8.72-8.76-22.97-8.76-31.68,0l-43.58,43.58c-8.76,8.74-8.76,22.95,0,31.68,4.36,4.38,10.11,6.57,15.84,6.57Z" fill="#0c0000fff"/>
</svg>