<svg xmlns="http://www.w3.org/2000/svg" id="Layer_1" data-name="Layer 1" version="1.1" viewBox="0 0 900 900">
  <defs fill="#000000">
    <style>
      .cls-1 {
        fill: #0c0000;
        stroke-width: 0px;
      }
    </style>
  </defs>
  <path class="cls-1" d="M524.17,850.13c-204.47,0-370.82-179.5-370.82-400.13,0-19.43,14.59-35.17,32.6-35.17s32.6,15.74,32.6,35.17c0,181.85,137.1,329.79,305.63,329.79s305.64-147.94,305.64-329.79S692.7,120.21,524.17,120.21H37.6c-18,0-32.6-15.74-32.6-35.17s14.59-35.17,32.6-35.17h486.58c204.48,0,370.83,179.5,370.83,400.13s-166.35,400.13-370.83,400.13Z" fill="#000000"/>
  <path class="cls-1" d="M439.02,298.46H134.54c-18,0-32.6-15.74-32.6-35.17s14.59-35.17,32.6-35.17h304.49c18,0,32.6,15.74,32.6,35.17s-14.59,35.17-32.6,35.17Z" fill="#000000"/>
  <path class="cls-1" d="M518.87,485.17h-175.58c-18,0-32.6-15.74-32.6-35.17s14.59-35.17,32.6-35.17h158.13l112.04-181.5c9.98-16.17,30.22-20.54,45.2-9.77,14.98,10.77,19.04,32.61,9.06,48.77l-121.72,197.17c-6.04,9.79-16.23,15.67-27.13,15.67Z" fill="#000000"/>
</svg>